<svg width="188" height="235" viewBox="0 0 188 235" fill="none" xmlns="http://www.w3.org/2000/svg">
<path fill-rule="evenodd" clip-rule="evenodd" d="M94 0C145.915 0 188 41.9937 188 93.7956C188 126.456 159.975 172.11 103.926 230.759C103.776 230.916 103.623 231.069 103.465 231.219C97.9835 236.435 89.3017 236.229 84.0741 230.759L82.401 229.003C27.467 171.199 0 126.129 0 93.7956C0 41.9937 42.0852 0 94 0ZM94 16.8471C51.476 16.8471 16.8839 51.364 16.8839 93.7956C16.8839 95.1916 17.0161 96.5547 17.0932 97.9343C16.8453 98.9071 16.9334 99.924 17.2419 100.919C19.9134 129.747 38.559 154.019 64.2607 164.78C64.3103 164.802 64.3654 164.813 64.4205 164.835C73.5367 168.628 83.5232 170.744 94 170.744C108.558 170.744 122.125 166.627 133.753 159.608C134.877 159.356 135.891 158.735 136.689 157.828C157.423 144.021 171.116 120.48 171.116 93.7956C171.116 92.3995 170.984 91.0364 170.907 89.6568C171.16 88.6785 171.067 87.6617 170.758 86.6613C168.081 57.8387 149.441 33.5779 123.745 22.8161C123.69 22.7942 123.635 22.7777 123.58 22.7557C114.463 18.9632 104.477 16.8471 94 16.8471ZM71.9668 120.557L121.663 153.617C113.235 157.514 103.887 159.751 94 159.751C86.2664 159.751 78.8687 158.35 71.9668 155.904V120.557ZM60.9502 84.8146V150.831C43.5495 140.751 31.1889 123.008 28.5064 102.249L60.9502 84.8146ZM159.907 97.6045C158.722 118.155 148.108 136.189 132.277 147.467L103.16 128.093L159.907 97.6045ZM127.05 36.7658C144.45 46.846 156.811 64.5826 159.494 85.3422L127.05 102.777V36.7658ZM51.9497 42.9436C52.1975 43.1525 52.3793 43.4108 52.6658 43.5812L82.3279 60.8452L28.0932 89.9866C29.1839 71.0958 38.1955 54.2935 51.9497 42.9436ZM94 27.8398C101.734 27.8398 109.131 29.2413 116.033 31.6872V67.7375L98.0761 57.2835C97.2499 56.3382 96.1923 55.7171 94.997 55.4917L61.8646 36.2052C71.3885 30.8957 82.3389 27.8398 94 27.8398Z" fill="white"/>
</svg>
