<svg width="276" height="34" viewBox="0 0 276 34" fill="none" xmlns="http://www.w3.org/2000/svg">
<path d="M9.428 22.808V32.792C9.04667 32.896 8.44 33 7.608 33.104C6.81067 33.208 6.01333 33.26 5.216 33.26C4.41867 33.26 3.708 33.1907 3.084 33.052C2.49467 32.948 1.992 32.74 1.576 32.428C1.19467 32.116 0.9 31.6827 0.692 31.128C0.484 30.5733 0.38 29.8453 0.38 28.944V4.452C0.38 3.724 0.570667 3.16933 0.952 2.788C1.368 2.372 1.92267 2.04266 2.616 1.8C3.79467 1.384 5.164 1.08933 6.724 0.915998C8.284 0.707998 9.948 0.603999 11.716 0.603999C16.5 0.603999 20.1053 1.60933 22.532 3.62C24.9587 5.63067 26.172 8.352 26.172 11.784C26.172 13.9333 25.6173 15.7707 24.508 17.296C23.3987 18.8213 22.0813 20 20.556 20.832C21.804 22.5307 23.0347 24.1253 24.248 25.616C25.4613 27.1067 26.4147 28.4587 27.108 29.672C26.7613 30.8853 26.12 31.8213 25.184 32.48C24.2827 33.104 23.26 33.416 22.116 33.416C21.3533 33.416 20.6947 33.3293 20.14 33.156C19.5853 32.9827 19.1 32.74 18.684 32.428C18.268 32.116 17.8867 31.7347 17.54 31.284C17.1933 30.8333 16.864 30.348 16.552 29.828L12.184 22.808H9.428ZM12.704 15.892C14.0213 15.892 15.0613 15.5627 15.824 14.904C16.5867 14.2107 16.968 13.2053 16.968 11.888C16.968 10.5707 16.5347 9.58266 15.668 8.924C14.836 8.23067 13.5013 7.884 11.664 7.884C11.144 7.884 10.728 7.90133 10.416 7.936C10.104 7.97067 9.75733 8.02266 9.376 8.092V15.892H12.704ZM32.0675 6.324C32.0675 4.83333 32.5008 3.65466 33.3675 2.788C34.2342 1.92133 35.4128 1.488 36.9035 1.488H54.0635C54.3062 1.86933 54.5142 2.372 54.6875 2.996C54.8955 3.62 54.9995 4.27867 54.9995 4.972C54.9995 6.28933 54.7048 7.22533 54.1155 7.78C53.5608 8.33467 52.8155 8.612 51.8795 8.612H40.9075V13.448H52.6075C52.8502 13.8293 53.0582 14.332 53.2315 14.956C53.4395 15.5453 53.5435 16.1867 53.5435 16.88C53.5435 18.1973 53.2662 19.1333 52.7115 19.688C52.1568 20.2427 51.4115 20.52 50.4755 20.52H40.9075V25.98H54.2715C54.5142 26.3613 54.7222 26.864 54.8955 27.488C55.1035 28.112 55.2075 28.7707 55.2075 29.464C55.2075 30.7813 54.9128 31.7347 54.3235 32.324C53.7688 32.8787 53.0235 33.156 52.0875 33.156H36.9035C35.4128 33.156 34.2342 32.7227 33.3675 31.856C32.5008 30.9893 32.0675 29.8107 32.0675 28.32V6.324ZM72.3598 16.1C73.8158 16.1 74.9251 15.7707 75.6878 15.112C76.4851 14.4187 76.8838 13.3787 76.8838 11.992C76.8838 10.6747 76.4678 9.66933 75.6358 8.976C74.8384 8.248 73.6598 7.884 72.0998 7.884C71.5451 7.884 71.0771 7.90133 70.6958 7.936C70.3491 7.936 69.9851 7.97067 69.6038 8.04V16.1H72.3598ZM69.6558 32.792C69.2744 32.896 68.6678 33 67.8358 33.104C67.0384 33.208 66.2411 33.26 65.4438 33.26C64.6464 33.26 63.9358 33.1907 63.3118 33.052C62.7224 32.948 62.2198 32.74 61.8038 32.428C61.3878 32.116 61.0758 31.6827 60.8678 31.128C60.6598 30.5733 60.5558 29.8453 60.5558 28.944V4.452C60.5558 3.724 60.7464 3.16933 61.1278 2.788C61.5438 2.372 62.0984 2.04266 62.7918 1.8C63.9704 1.384 65.3051 1.08933 66.7958 0.915998C68.3211 0.707998 69.8464 0.603999 71.3718 0.603999C76.1558 0.603999 79.8131 1.62667 82.3438 3.672C84.8744 5.71733 86.1398 8.49067 86.1398 11.992C86.1398 13.6907 85.8624 15.2333 85.3078 16.62C84.7878 17.972 83.9904 19.1507 82.9158 20.156C81.8758 21.1267 80.5411 21.8893 78.9118 22.444C77.3171 22.964 75.4624 23.224 73.3478 23.224H69.6558V32.792ZM89.2106 17.192C89.2106 14.488 89.6266 12.096 90.4586 10.016C91.3253 7.936 92.4866 6.20266 93.9426 4.816C95.4333 3.39467 97.1666 2.32 99.1426 1.592C101.153 0.863999 103.32 0.5 105.643 0.5C107.965 0.5 110.115 0.863999 112.091 1.592C114.101 2.32 115.852 3.39467 117.343 4.816C118.833 6.20266 119.995 7.936 120.827 10.016C121.693 12.096 122.127 14.488 122.127 17.192C122.127 19.896 121.711 22.3053 120.879 24.42C120.047 26.5 118.885 28.2507 117.395 29.672C115.939 31.0587 114.205 32.116 112.195 32.844C110.184 33.572 108 33.936 105.643 33.936C103.285 33.936 101.101 33.572 99.0906 32.844C97.08 32.0813 95.3466 30.9893 93.8906 29.568C92.4346 28.1467 91.2906 26.396 90.4586 24.316C89.6266 22.236 89.2106 19.8613 89.2106 17.192ZM98.5706 17.192C98.5706 20.3467 99.212 22.704 100.495 24.264C101.777 25.824 103.493 26.604 105.643 26.604C107.827 26.604 109.56 25.824 110.843 24.264C112.125 22.704 112.767 20.3467 112.767 17.192C112.767 14.072 112.125 11.732 110.843 10.172C109.595 8.612 107.879 7.832 105.695 7.832C103.545 7.832 101.812 8.612 100.495 10.172C99.212 11.6973 98.5706 14.0373 98.5706 17.192ZM136.381 22.808V32.792C136 32.896 135.393 33 134.561 33.104C133.764 33.208 132.966 33.26 132.169 33.26C131.372 33.26 130.661 33.1907 130.037 33.052C129.448 32.948 128.945 32.74 128.529 32.428C128.148 32.116 127.853 31.6827 127.645 31.128C127.437 30.5733 127.333 29.8453 127.333 28.944V4.452C127.333 3.724 127.524 3.16933 127.905 2.788C128.321 2.372 128.876 2.04266 129.569 1.8C130.748 1.384 132.117 1.08933 133.677 0.915998C135.237 0.707998 136.901 0.603999 138.669 0.603999C143.453 0.603999 147.058 1.60933 149.485 3.62C151.912 5.63067 153.125 8.352 153.125 11.784C153.125 13.9333 152.57 15.7707 151.461 17.296C150.352 18.8213 149.034 20 147.509 20.832C148.757 22.5307 149.988 24.1253 151.201 25.616C152.414 27.1067 153.368 28.4587 154.061 29.672C153.714 30.8853 153.073 31.8213 152.137 32.48C151.236 33.104 150.213 33.416 149.069 33.416C148.306 33.416 147.648 33.3293 147.093 33.156C146.538 32.9827 146.053 32.74 145.637 32.428C145.221 32.116 144.84 31.7347 144.493 31.284C144.146 30.8333 143.817 30.348 143.505 29.828L139.137 22.808H136.381ZM139.657 15.892C140.974 15.892 142.014 15.5627 142.777 14.904C143.54 14.2107 143.921 13.2053 143.921 11.888C143.921 10.5707 143.488 9.58266 142.621 8.924C141.789 8.23067 140.454 7.884 138.617 7.884C138.097 7.884 137.681 7.90133 137.369 7.936C137.057 7.97067 136.71 8.02266 136.329 8.092V15.892H139.657ZM156.803 8.768C156.56 8.38667 156.335 7.86667 156.127 7.208C155.919 6.54933 155.815 5.856 155.815 5.128C155.815 3.776 156.11 2.80533 156.699 2.216C157.323 1.62667 158.12 1.332 159.091 1.332H181.763C182.006 1.71333 182.231 2.23333 182.439 2.892C182.647 3.55067 182.751 4.244 182.751 4.972C182.751 6.324 182.439 7.29467 181.815 7.884C181.226 8.47333 180.446 8.768 179.475 8.768H173.703V32.792C173.322 32.896 172.715 33 171.883 33.104C171.086 33.208 170.288 33.26 169.491 33.26C168.694 33.26 167.983 33.1907 167.359 33.052C166.77 32.948 166.267 32.74 165.851 32.428C165.435 32.116 165.123 31.6827 164.915 31.128C164.707 30.5733 164.603 29.8453 164.603 28.944V8.768H156.803Z" fill="#135DEB"/>
<path d="M193.861 2.424C194.451 2.07733 195.335 1.748 196.513 1.436C197.727 1.124 198.94 0.967997 200.153 0.967997C201.887 0.967997 203.412 1.228 204.729 1.748C206.081 2.23333 206.948 3.01333 207.329 4.088C207.953 5.89067 208.629 7.988 209.357 10.38C210.085 12.772 210.813 15.2507 211.541 17.816C212.269 20.3467 212.98 22.86 213.673 25.356C214.367 27.8173 214.973 30.0013 215.493 31.908C215.077 32.3933 214.453 32.7747 213.621 33.052C212.789 33.364 211.801 33.52 210.657 33.52C209.825 33.52 209.115 33.4507 208.525 33.312C207.971 33.1733 207.503 32.9653 207.121 32.688C206.775 32.4107 206.48 32.0467 206.237 31.596C206.029 31.1453 205.839 30.6253 205.665 30.036L204.729 26.448H195.317C195.04 27.488 194.763 28.5627 194.485 29.672C194.208 30.7813 193.931 31.856 193.653 32.896C193.168 33.0693 192.648 33.208 192.093 33.312C191.573 33.4507 190.932 33.52 190.169 33.52C188.401 33.52 187.084 33.2253 186.217 32.636C185.385 32.012 184.969 31.1627 184.969 30.088C184.969 29.6027 185.039 29.1173 185.177 28.632C185.316 28.1467 185.472 27.5747 185.645 26.916C185.888 25.98 186.217 24.8187 186.633 23.432C187.084 22.0453 187.569 20.5547 188.089 18.96C188.609 17.3307 189.164 15.6667 189.753 13.968C190.343 12.2693 190.897 10.6747 191.417 9.184C191.937 7.65866 192.405 6.30667 192.821 5.128C193.272 3.94933 193.619 3.048 193.861 2.424ZM200.101 9.132C199.616 10.588 199.061 12.2173 198.437 14.02C197.848 15.788 197.311 17.5907 196.825 19.428H203.273C202.788 17.556 202.285 15.736 201.765 13.968C201.28 12.1653 200.829 10.5533 200.413 9.132H200.101ZM231.559 16.1C233.015 16.1 234.124 15.7707 234.887 15.112C235.684 14.4187 236.083 13.3787 236.083 11.992C236.083 10.6747 235.667 9.66933 234.835 8.976C234.038 8.248 232.859 7.884 231.299 7.884C230.744 7.884 230.276 7.90133 229.895 7.936C229.548 7.936 229.184 7.97067 228.803 8.04V16.1H231.559ZM228.855 32.792C228.474 32.896 227.867 33 227.035 33.104C226.238 33.208 225.44 33.26 224.643 33.26C223.846 33.26 223.135 33.1907 222.511 33.052C221.922 32.948 221.419 32.74 221.003 32.428C220.587 32.116 220.275 31.6827 220.067 31.128C219.859 30.5733 219.755 29.8453 219.755 28.944V4.452C219.755 3.724 219.946 3.16933 220.327 2.788C220.743 2.372 221.298 2.04266 221.991 1.8C223.17 1.384 224.504 1.08933 225.995 0.915998C227.52 0.707998 229.046 0.603999 230.571 0.603999C235.355 0.603999 239.012 1.62667 241.543 3.672C244.074 5.71733 245.339 8.49067 245.339 11.992C245.339 13.6907 245.062 15.2333 244.507 16.62C243.987 17.972 243.19 19.1507 242.115 20.156C241.075 21.1267 239.74 21.8893 238.111 22.444C236.516 22.964 234.662 23.224 232.547 23.224H228.855V32.792ZM261.774 16.1C263.23 16.1 264.339 15.7707 265.102 15.112C265.899 14.4187 266.298 13.3787 266.298 11.992C266.298 10.6747 265.882 9.66933 265.05 8.976C264.253 8.248 263.074 7.884 261.514 7.884C260.959 7.884 260.491 7.90133 260.11 7.936C259.763 7.936 259.399 7.97067 259.018 8.04V16.1H261.774ZM259.07 32.792C258.689 32.896 258.082 33 257.25 33.104C256.453 33.208 255.655 33.26 254.858 33.26C254.061 33.26 253.35 33.1907 252.726 33.052C252.137 32.948 251.634 32.74 251.218 32.428C250.802 32.116 250.49 31.6827 250.282 31.128C250.074 30.5733 249.97 29.8453 249.97 28.944V4.452C249.97 3.724 250.161 3.16933 250.542 2.788C250.958 2.372 251.513 2.04266 252.206 1.8C253.385 1.384 254.719 1.08933 256.21 0.915998C257.735 0.707998 259.261 0.603999 260.786 0.603999C265.57 0.603999 269.227 1.62667 271.758 3.672C274.289 5.71733 275.554 8.49067 275.554 11.992C275.554 13.6907 275.277 15.2333 274.722 16.62C274.202 17.972 273.405 19.1507 272.33 20.156C271.29 21.1267 269.955 21.8893 268.326 22.444C266.731 22.964 264.877 23.224 262.762 23.224H259.07V32.792Z" fill="#0A2F76"/>
</svg>
